<?xml version="1.0" standalone="no"?><!DOCTYPE svg PUBLIC "-//W3C//DTD SVG 1.1//EN" "http://www.w3.org/Graphics/SVG/1.1/DTD/svg11.dtd"><svg t="1599033079755" class="icon" viewBox="0 0 1029 1024" version="1.1" xmlns="http://www.w3.org/2000/svg" p-id="13531" xmlns:xlink="http://www.w3.org/1999/xlink" width="48.234375" height="48"><defs><style type="text/css"></style></defs><path d="M170.666667 113.777778a56.888889 56.888889 0 0 1 56.888889 56.888889v739.555555a56.888889 56.888889 0 0 1-56.888889 56.888889H113.777778a56.888889 56.888889 0 0 1-56.888889-56.888889V170.666667a56.888889 56.888889 0 0 1 56.888889-56.888889h56.888889m0-56.888889H113.777778a113.777778 113.777778 0 0 0-113.777778 113.777778v739.555555a113.777778 113.777778 0 0 0 113.777778 113.777778h56.888889a113.777778 113.777778 0 0 0 113.777777-113.777778V170.666667a113.777778 113.777778 0 0 0-113.777777-113.777778zM512 56.888889a56.888889 56.888889 0 0 1 56.888889 56.888889v796.444444a56.888889 56.888889 0 0 1-56.888889 56.888889H455.111111a56.888889 56.888889 0 0 1-56.888889-56.888889V113.777778a56.888889 56.888889 0 0 1 56.888889-56.888889h56.888889m0-56.888889H455.111111a113.777778 113.777778 0 0 0-113.777778 113.777778v796.444444a113.777778 113.777778 0 0 0 113.777778 113.777778h56.888889a113.777778 113.777778 0 0 0 113.777778-113.777778V113.777778a113.777778 113.777778 0 0 0-113.777778-113.777778zM801.564444 625.777778l-29.013333-448.853334a56.888889 56.888889 0 0 1 52.906667-60.302222l56.888889-3.982222h3.982222a56.888889 56.888889 0 0 1 56.888889 53.475556L972.8 625.777778h56.888889l-30.151111-463.644445a113.777778 113.777778 0 0 0-113.777778-106.382222h-7.395556l-56.888888 3.413333a113.777778 113.777778 0 0 0-106.382223 121.173334l29.582223 445.44zM1024 853.333333h-113.777778v-113.777777h-56.888889v113.777777h-113.777777v56.888889h113.777777v113.777778h56.888889v-113.777778h113.777778v-56.888889z" p-id="13532" fill="#333333"></path></svg>