<?xml version="1.0" standalone="no"?><!DOCTYPE svg PUBLIC "-//W3C//DTD SVG 1.1//EN" "http://www.w3.org/Graphics/SVG/1.1/DTD/svg11.dtd"><svg t="1600167981483" class="icon" viewBox="0 0 1024 1024" version="1.1" xmlns="http://www.w3.org/2000/svg" p-id="58589" xmlns:xlink="http://www.w3.org/1999/xlink" width="48" height="48"><defs><style type="text/css"></style></defs><path d="M1023.922191 535.34313v21.570854a21.339737 21.339737 0 0 1-21.339737 21.339737h-85.32043a21.339737 21.339737 0 0 1-21.339737-21.339737v-21.570854a21.339737 21.339737 0 0 1 21.339737-21.339737h85.32043a21.339737 21.339737 0 0 1 21.339737 21.339737z m-80.466987-318.05453l-60.43691 60.668025a21.339737 21.339737 0 0 1-30.160675 0l-15.138117-15.215156a21.339737 21.339737 0 0 1 0-30.122156l60.436909-60.668025a21.339737 21.339737 0 0 1 30.160676 0l15.138117 15.215156a21.339737 21.339737 0 0 1 0 30.045117z m-828.166696-45.337312l60.436909 60.668025a21.339737 21.339737 0 0 1 0 30.122156l-15.176636 15.176637a21.339737 21.339737 0 0 1-30.160676 0L69.758599 217.173042a21.339737 21.339737 0 0 1 0-30.122157l15.176637-15.176636a21.339737 21.339737 0 0 1 30.160675 0zM21.339737 642.42701h85.28191a21.339737 21.339737 0 0 1 21.339737 21.339737v21.570854a21.339737 21.339737 0 0 1-21.339737 21.339737H21.339737A21.339737 21.339737 0 0 1 0 685.337601v-21.570854a21.339737 21.339737 0 0 1 21.339737-21.339737z m383.961192 317.47674h213.320333a21.339737 21.339737 0 0 1 21.339737 21.339737v21.339737a21.339737 21.339737 0 0 1-21.339737 21.339737h-213.320333a21.339737 21.339737 0 0 1-21.339737-21.339737v-21.339737a21.339737 21.339737 0 0 1 21.339737-21.339737z m-63.980692-127.961385h341.281717a21.339737 21.339737 0 0 1 21.339737 21.339738v21.339737a21.339737 21.339737 0 0 1-21.339737 21.339737h-341.281717a21.339737 21.339737 0 0 1-21.339737-21.339737v-21.339737a21.339737 21.339737 0 0 1 21.339737-21.339738z m213.320333-703.903172h-21.339737a21.339737 21.339737 0 0 1-21.339738-21.339737V21.340508A21.339737 21.339737 0 0 1 533.300833 0.00077h21.339737a21.339737 21.339737 0 0 1 21.339737 21.339738v85.320429a21.339737 21.339737 0 0 1-21.339737 21.339737z m127.113958 575.941788H342.206183c-55.044196-63.980692-86.206375-114.595159-86.206376-188.205696a255.999807 255.999807 0 0 1 511.961096-0.308155c0 73.610537-31.239218 124.533159-86.244895 188.513851z m-169.870471-507.261731a318.170089 318.170089 0 0 0-319.9805 318.824918 322.291662 322.291662 0 0 0 127.345074 252.378986h385.193812a322.253143 322.253143 0 0 0 127.345074-252.340466 318.285647 318.285647 0 0 0-319.90346-318.863438z" p-id="58590" fill="#dbdbdb"></path></svg>