<?xml version="1.0" standalone="no"?><!DOCTYPE svg PUBLIC "-//W3C//DTD SVG 1.1//EN" "http://www.w3.org/Graphics/SVG/1.1/DTD/svg11.dtd"><svg t="1600169730843" class="icon" viewBox="0 0 1024 1024" version="1.1" xmlns="http://www.w3.org/2000/svg" p-id="60586" xmlns:xlink="http://www.w3.org/1999/xlink" width="48" height="48"><defs><style type="text/css"></style></defs><path d="M188.5625 188.5625a53.90625 53.90625 0 1 1 0 107.8125 53.90625 53.90625 0 0 1 0-107.8125z m0 269.53125a53.90625 53.90625 0 1 1 0 107.8125 53.90625 53.90625 0 0 1 0-107.8125z m202.1484375-253.359375h458.203125a40.4296875 40.4296875 0 1 1 0 80.859375h-458.203125a40.4296875 40.4296875 0 0 1 0-80.859375z m0 269.53125h458.203125a40.4296875 40.4296875 0 1 1 0 80.859375h-458.203125a40.4296875 40.4296875 0 0 1 0-80.859375zM188.5625 727.625a53.90625 53.90625 0 1 1 0 107.8125 53.90625 53.90625 0 0 1 0-107.8125z m202.1484375 16.171875h458.203125a40.4296875 40.4296875 0 1 1 0 80.859375h-458.203125a40.4296875 40.4296875 0 1 1 0-80.859375z" p-id="60587" fill="#dbdbdb"></path></svg>