<?xml version="1.0" standalone="no"?><!DOCTYPE svg PUBLIC "-//W3C//DTD SVG 1.1//EN" "http://www.w3.org/Graphics/SVG/1.1/DTD/svg11.dtd"><svg t="1599556677615" class="icon" viewBox="0 0 1024 1024" version="1.1" xmlns="http://www.w3.org/2000/svg" p-id="116320" xmlns:xlink="http://www.w3.org/1999/xlink" width="48" height="48"><defs><style type="text/css"></style></defs><path d="M765.44 989.696c-13.824 0-29.696-4.096-44.032-11.264l-207.36-103.936L305.152 977.92c-13.312 7.168-28.16 10.752-44.032 10.752-19.968 0-39.424-6.144-55.808-18.432-29.184-22.016-44.032-59.904-37.376-94.72l42.496-221.696-163.84-152.576c-25.088-25.6-34.816-62.976-25.6-97.28l0.512-1.024c11.776-35.84 41.472-60.416 77.312-65.536L326.656 296.96l101.888-207.36C444.928 56.832 478.208 35.84 513.536 35.84c36.864 0 71.168 22.016 85.504 54.272L700.416 296.96l227.328 39.936c35.84 5.12 65.536 31.232 75.776 66.048 11.264 34.304 2.048 72.192-23.552 97.792l-0.512 0.512-163.328 153.6 41.472 221.696c6.656 35.328-7.68 71.168-36.864 93.696-15.872 12.8-35.328 19.968-55.296 19.456z m-251.904-193.024l218.112 109.056c6.656 3.072 13.824 5.12 18.944 5.12 7.68 0 14.848-2.56 20.48-6.656l1.024-1.024c12.288-9.216 18.432-24.064 15.872-38.4l-44.032-236.544 173.568-163.328c10.752-10.752 14.336-26.112 9.728-40.448l-0.512-1.536c-3.584-13.824-15.36-24.064-29.696-26.112h-1.024l-240.64-41.472-108.032-219.648c-5.12-12.288-19.456-20.992-33.792-20.992s-27.648 8.704-34.304 22.528l-107.52 218.112L130.56 399.36c-14.848 2.048-26.112 11.776-31.232 26.624-3.584 13.824 0.512 30.72 10.752 40.96l173.568 161.792-45.568 236.544c-2.56 13.824 3.584 29.184 15.872 38.4 6.144 4.608 13.824 7.168 22.016 7.168 6.144 0 12.288-1.536 17.408-4.096l0.512-0.512 219.648-109.568z" p-id="116321" fill="#515151"></path></svg>