<?xml version="1.0" standalone="no"?><!DOCTYPE svg PUBLIC "-//W3C//DTD SVG 1.1//EN" "http://www.w3.org/Graphics/SVG/1.1/DTD/svg11.dtd"><svg t="1599220783507" class="icon" viewBox="0 0 1024 1024" version="1.1" xmlns="http://www.w3.org/2000/svg" p-id="8651" xmlns:xlink="http://www.w3.org/1999/xlink" width="48" height="48"><defs><style type="text/css"></style></defs><path d="M235.602542 0h107.563025v377.331092h-107.563025zM457.612626 0h107.563025v377.331092h-107.563025zM680.052962 0h107.563025v377.331092h-107.563025z" fill="#FF858B" p-id="8652"></path><path d="M511.824391 606.22521m-417.77479 0a417.77479 417.77479 0 1 0 835.54958 0 417.77479 417.77479 0 1 0-835.54958 0Z" fill="#F9D5C6" p-id="8653"></path><path d="M511.824391 606.22521m-323.119328 0a323.119328 323.119328 0 1 0 646.238655 0 323.119328 323.119328 0 1 0-646.238655 0Z" fill="#DF7E62" p-id="8654"></path><path d="M624.550441 621.714286a94.655462 94.655462 0 0 0-33.129412-24.52437 78.736134 78.736134 0 0 0 45.606723-75.72437 92.934454 92.934454 0 0 0-33.559664-74.863865 137.680672 137.680672 0 0 0-86.05042-26.675631 125.633613 125.633613 0 0 0-86.05042 30.117647 120.90084 120.90084 0 0 0-40.443698 86.050421v7.314285h61.095799v-6.023529a64.968067 64.968067 0 0 1 18.50084-43.02521 63.677311 63.677311 0 0 1 43.02521-14.198319 62.386555 62.386555 0 0 1 43.02521 12.047058 43.02521 43.02521 0 0 1 12.907563 34.850421 43.02521 43.02521 0 0 1-14.198319 35.280672 66.258824 66.258824 0 0 1-43.02521 12.477311H481.276491v53.35126h31.838656a73.573109 73.573109 0 0 1 47.757983 13.337815 46.467227 46.467227 0 0 1 16.34958 39.583194 51.630252 51.630252 0 0 1-15.919328 38.292437 68.840336 68.840336 0 0 1-49.048739 17.640336 63.247059 63.247059 0 0 1-43.02521-15.919328 64.537815 64.537815 0 0 1-20.652101-49.048739v-6.453782h-68.840336v7.314286a129.07563 129.07563 0 0 0 43.02521 93.364706 135.959664 135.959664 0 0 0 89.492437 28.82689 139.831933 139.831933 0 0 0 98.097479-35.280672 109.284034 109.284034 0 0 0 35.280672-83.468907 79.166387 79.166387 0 0 0-21.082353-54.642017z" fill="#FFFFFF" p-id="8655"></path></svg>