<?xml version="1.0" standalone="no"?><!DOCTYPE svg PUBLIC "-//W3C//DTD SVG 1.1//EN" "http://www.w3.org/Graphics/SVG/1.1/DTD/svg11.dtd"><svg t="1600168202490" class="icon" viewBox="0 0 1024 1024" version="1.1" xmlns="http://www.w3.org/2000/svg" p-id="59752" xmlns:xlink="http://www.w3.org/1999/xlink" width="48" height="48"><defs><style type="text/css"></style></defs><path d="M509.401015 220.913706c-162.336587 0-293.885201 131.548614-293.885201 293.885201s131.548614 293.885201 293.885201 293.885201 293.885201-131.548614 293.885201-293.885201-131.548614-293.885201-293.885201-293.885201z m0.199922 489.608746c-108.357673 0-196.123389-87.765717-196.123389-196.123389s87.765717-196.123389 196.123389-196.123389S705.724326 406.141351 705.724326 514.399063 617.95861 710.522452 509.600937 710.522452zM511.400234 183.828192c-24.190551 0-43.982819-19.792269-43.982819-43.982819v-79.468958c0-24.190551 19.792269-43.982819 43.982819-43.982819s43.982819 19.792269 43.982819 43.982819v79.468958c0 24.190551-19.792269 43.982819-43.982819 43.982819zM181.828973 515.298711c0 24.190551-19.792269 43.982819-43.982819 43.98282h-79.468958c-24.190551 0-43.982819-19.792269-43.982819-43.98282s19.792269-43.982819 43.982819-43.982819h79.468958c24.190551 0 43.982819 19.792269 43.982819 43.982819zM1009.505662 515.298711c0 24.190551-19.792269 43.982819-43.982819 43.98282h-79.468958c-24.190551 0-43.982819-19.792269-43.982819-43.98282s19.792269-43.982819 43.982819-43.982819h79.468958c24.190551 0 43.982819 19.792269 43.982819 43.982819zM277.891449 280.690355c-17.093323 17.093323-45.08239 17.093323-62.175713 0l-56.178055-56.178055c-17.093323-17.093323-17.093323-45.08239 0-62.175713s45.08239-17.093323 62.175712 0l56.178056 56.178056c17.093323 17.093323 17.093323 45.08239 0 62.175712zM746.308473 281.290121c17.093323 17.093323 45.08239 17.093323 62.175713 0l56.178055-56.178055c17.093323-17.093323 17.093323-45.08239 0-62.175713s-45.08239-17.093323-62.175712 0l-56.178056 56.178055c-17.193284 17.093323-17.193284 45.08239 0 62.175713zM511.400234 848.468567c-24.190551 0-43.982819 19.792269-43.982819 43.982819V971.920344c0 24.190551 19.792269 43.982819 43.982819 43.982819s43.982819-19.792269 43.982819-43.982819v-79.468958c0-24.190551-19.792269-43.982819-43.982819-43.982819zM277.891449 751.606404c-17.093323-17.093323-45.08239-17.093323-62.175713 0l-56.178055 56.178055c-17.093323 17.093323-17.093323 45.08239 0 62.175713s45.08239 17.093323 62.175712 0l56.178056-56.178056c17.093323-17.093323 17.093323-45.08239 0-62.175712zM746.308473 751.006638c17.093323-17.093323 45.08239-17.093323 62.175713 0l56.178055 56.178055c17.093323 17.093323 17.093323 45.08239 0 62.175713s-45.08239 17.093323-62.175712 0l-56.178056-56.178055c-17.193284-17.093323-17.193284-45.08239 0-62.175713z" fill="#dbdbdb" p-id="59753"></path></svg>