<?xml version="1.0" standalone="no"?><!DOCTYPE svg PUBLIC "-//W3C//DTD SVG 1.1//EN" "http://www.w3.org/Graphics/SVG/1.1/DTD/svg11.dtd"><svg t="1599033155594" class="icon" viewBox="0 0 1024 1024" version="1.1" xmlns="http://www.w3.org/2000/svg" p-id="14131" xmlns:xlink="http://www.w3.org/1999/xlink" width="48" height="48"><defs><style type="text/css"></style></defs><path d="M931.970876 1024H91.997125c-50.750414 0-91.997125-39.67876-91.997125-88.477235V415.155026c0-49.054467 41.246711-88.893222 91.997125-88.893222h123.996125a31.67901 31.67901 0 0 1 31.999 31.35902 31.67901 31.67901 0 0 1-31.999 31.423018H91.997125c-15.423518 0.031999-27.999125 11.711634-27.999125 26.111184V935.522765c0 14.303553 12.575607 26.015187 27.999125 26.015187h839.973751c15.423518 0 27.999125-11.711634 27.999125-26.015187V415.155026c0-14.39955-12.575607-26.079185-27.999125-26.079185H807.974751a31.67901 31.67901 0 0 1-31.999-31.423018 31.67901 31.67901 0 0 1 31.999-31.35902h123.996125c50.686416 0 91.997125 39.870754 91.997125 88.893222v520.367739c0 48.766476-41.310709 88.445236-91.997125 88.445236z" p-id="14132"></path><path d="M511.984 847.973501a31.871004 31.871004 0 0 1-23.743258-10.591669l-287.991-319.99A31.999 31.999 0 1 1 223.993 463.9855h95.997v-367.9885c0-52.926346 43.070654-95.997 95.997-95.997h191.994001c52.926346 0 95.997 43.070654 95.997 95.997v367.9885h95.997a31.999 31.999 0 0 1 23.807256 53.406332l-287.991 319.99A31.999 31.999 0 0 1 511.984 847.973501z m-216.121246-319.99L511.984 768.135996l216.185245-240.152495H671.979001a31.999 31.999 0 0 1-31.999-31.999001v-399.9875a31.999 31.999 0 0 0-31.999-31.999H415.987c-17.631449 0-31.999 14.367551-31.999 31.999v399.9875a31.999 31.999 0 0 1-31.999 31.999001h-56.126246z" p-id="14133"></path></svg>