<?xml version="1.0" standalone="no"?><!DOCTYPE svg PUBLIC "-//W3C//DTD SVG 1.1//EN" "http://www.w3.org/Graphics/SVG/1.1/DTD/svg11.dtd"><svg t="1599656387071" class="icon" viewBox="0 0 1024 1024" version="1.1" xmlns="http://www.w3.org/2000/svg" p-id="13574" xmlns:xlink="http://www.w3.org/1999/xlink" width="48" height="48"><defs><style type="text/css"></style></defs><path d="M306.450732 430.70439c32.493268 99.877463 103.948488 219.710439 214.415609 213.141854 110.467122-6.693463 175.378732-119.832976 207.896976-219.835317 51.974244-13.237073 51.974244-93.159024 13.062244-126.501464 9.240976-103.773659 39.985951-252.778146-74.876878-258.247804C635.854049 37.763122 617.472 4.670439 499.512195 15.13522c-71.804878 6.443707-143.459902 19.580878-187.841561 64.362146-45.45561 45.85522-42.708293 134.54361-31.094634 224.680585-39.036878 26.624-26.124488 106.545951 25.874732 126.501464z m351.232 253.027903c-37.138732 73.228488-58.368 159.843902-95.531708 226.378927-5.319805-46.579512-4.620488-77.224585-5.319804-173.080976h-90.186927c5.34478 119.808 5.34478 119.808-5.344781 173.080976-26.574049-73.228488-53.048195-159.843902-90.186927-226.378927C211.868098 710.381268 95.107122 790.30322 89.88722 1016.682146h849.170731c-0.124878-226.378927-122.230634-306.300878-281.375219-332.924878z" fill="#dd5912" p-id="13575"></path></svg>