<?xml version="1.0" standalone="no"?><!DOCTYPE svg PUBLIC "-//W3C//DTD SVG 1.1//EN" "http://www.w3.org/Graphics/SVG/1.1/DTD/svg11.dtd"><svg t="1599220708854" class="icon" viewBox="0 0 1024 1024" version="1.1" xmlns="http://www.w3.org/2000/svg" p-id="8192" xmlns:xlink="http://www.w3.org/1999/xlink" width="48" height="48"><defs><style type="text/css"></style></defs><path d="M235.602542 0h107.563025v377.331092h-107.563025zM457.612626 0h107.563025v377.331092h-107.563025zM680.052962 0h107.563025v377.331092h-107.563025z" fill="#FF858B" p-id="8193"></path><path d="M511.824391 606.22521m-417.77479 0a417.77479 417.77479 0 1 0 835.54958 0 417.77479 417.77479 0 1 0-835.54958 0Z" fill="#FFF445" p-id="8194"></path><path d="M511.824391 606.22521m-323.119328 0a323.119328 323.119328 0 1 0 646.238655 0 323.119328 323.119328 0 1 0-646.238655 0Z" fill="#FFB811" p-id="8195"></path><path d="M492.032794 430.252101a201.788235 201.788235 0 0 1-43.02521 33.129412 200.067227 200.067227 0 0 1-47.757983 19.791596h-5.163026v66.689076l8.605042-2.581513a203.509244 203.509244 0 0 0 70.991597-35.280672v274.931092h66.258824V426.379832H494.184054z" fill="#FFFFFF" p-id="8196"></path></svg>