<?xml version="1.0" standalone="no"?><!DOCTYPE svg PUBLIC "-//W3C//DTD SVG 1.1//EN" "http://www.w3.org/Graphics/SVG/1.1/DTD/svg11.dtd"><svg t="1600354418224" class="icon" viewBox="0 0 1024 1024" version="1.1" xmlns="http://www.w3.org/2000/svg" p-id="16532" xmlns:xlink="http://www.w3.org/1999/xlink" width="48" height="48"><defs><style type="text/css"></style></defs><path d="M0 56.888889m56.888889 0l910.222222 0q56.888889 0 56.888889 56.888889l0 0q0 56.888889-56.888889 56.888889l-910.222222 0q-56.888889 0-56.888889-56.888889l0 0q0-56.888889 56.888889-56.888889Z" fill="#dbdbdb" p-id="16533"></path><path d="M0 853.333333m56.888889 0l910.222222 0q56.888889 0 56.888889 56.888889l0 0q0 56.888889-56.888889 56.888889l-910.222222 0q-56.888889 0-56.888889-56.888889l0 0q0-56.888889 56.888889-56.888889Z" fill="#dbdbdb" p-id="16534"></path><path d="M0 455.111111m56.888889 0l910.222222 0q56.888889 0 56.888889 56.888889l0 0q0 56.888889-56.888889 56.888889l-910.222222 0q-56.888889 0-56.888889-56.888889l0 0q0-56.888889 56.888889-56.888889Z" fill="#dbdbdb" p-id="16535"></path></svg>