<?xml version="1.0" standalone="no"?><!DOCTYPE svg PUBLIC "-//W3C//DTD SVG 1.1//EN" "http://www.w3.org/Graphics/SVG/1.1/DTD/svg11.dtd"><svg t="1600224204299" class="icon" viewBox="0 0 1024 1024" version="1.1" xmlns="http://www.w3.org/2000/svg" p-id="6764" data-spm-anchor-id="a313x.7781069.0.i6" xmlns:xlink="http://www.w3.org/1999/xlink" width="48" height="48"><defs><style type="text/css"></style></defs><path d="M405.333333 356.181333v381.184a32 32 0 1 0 64 0V305.066667a49.066667 49.066667 0 0 0-90.453333-26.453334l-94.72 148.352a32 32 0 1 0 53.930667 34.474667L405.333333 356.181333z" fill="#dbdbdb" p-id="6765" data-spm-anchor-id="a313x.7781069.0.i7" class=""></path><path d="M599.125333 669.184V288a32 32 0 1 0-64 0v432.298667a49.066667 49.066667 0 0 0 90.410667 26.410666l94.72-148.309333a32 32 0 1 0-53.888-34.474667l-67.242667 105.258667z" fill="#515151" p-id="6766" data-spm-anchor-id="a313x.7781069.0.i8" class="selected"></path></svg>