<?xml version="1.0" standalone="no"?><!DOCTYPE svg PUBLIC "-//W3C//DTD SVG 1.1//EN" "http://www.w3.org/Graphics/SVG/1.1/DTD/svg11.dtd"><svg t="1600338795395" class="icon" viewBox="0 0 1024 1024" version="1.1" xmlns="http://www.w3.org/2000/svg" p-id="5305" xmlns:xlink="http://www.w3.org/1999/xlink" width="48" height="48"><defs><style type="text/css"></style></defs><path d="M512.577919 838.524162a323.851287 323.851287 0 0 1-230.51739-95.501093 323.851287 323.851287 0 0 1-95.501093-230.51739c0-87.08515 33.916614-168.93291 95.501093-230.51739a323.851287 323.851287 0 0 1 230.51739-95.501093c87.08515 0 168.96903 33.916614 230.51739 95.501093a323.851287 323.851287 0 0 1 95.501093 230.51739 323.851287 323.851287 0 0 1-95.501093 230.51739 323.851287 323.851287 0 0 1-230.51739 95.501093z m0-587.490652c-144.190758 0-261.472169 117.317531-261.472169 261.472169 0 144.190758 117.317531 261.472169 261.472169 261.472169 144.190758 0 261.472169-117.317531 261.472169-261.472169 0-144.154638-117.317531-261.472169-261.472169-261.472169zM574.812557 75.021093a61.945679 61.945679 0 1 1-123.891358 0 61.945679 61.945679 0 0 1 123.891358 0z m0 0" p-id="5306" fill="#dbdbdb"></path><path d="M143.39612 202.957884a60.031323 60.031323 0 1 0 120.062645 0 60.031323 60.031323 0 0 0-120.062645 0z m0 0M75.057213 452.221517c34.205573 0 61.945679 26.873228 61.945679 60.031323 0 33.121975-27.740106 59.995203-61.945679 60.031322-34.205573 0-61.945679-26.873228-61.945679-60.031322 0.03612-33.158095 27.740106-60.031323 61.945679-60.031323z m0 0" p-id="5307" fill="#dbdbdb"></path><path d="M160.553086 779.215238a60.031323 60.031323 0 1 1 84.881835 84.881834 60.031323 60.031323 0 0 1-84.881835-84.881834z m0 0M452.257637 950.026384a60.031323 60.031323 0 1 1 120.062645 0 60.031323 60.031323 0 0 1-120.062645 0z m0 0M777.914921 864.530511a58.694885 58.694885 0 0 1 0-84.881834 63.354356 63.354356 0 0 1 87.590829 0c24.200353 23.441834 24.200353 61.44 0 84.881834a63.354356 63.354356 0 0 1-87.590829 0z m0 0M950.062504 572.862081a59.995203 59.995203 0 1 1 0-119.990406 59.995203 59.995203 0 0 1 0 119.990406z m0 0M864.566631 245.83224a60.031323 60.031323 0 1 1-84.881834-84.881834 60.031323 60.031323 0 0 1 84.881834 84.881834z m0 0" p-id="5308" fill="#dbdbdb"></path></svg>