<?xml version="1.0" standalone="no"?><!DOCTYPE svg PUBLIC "-//W3C//DTD SVG 1.1//EN" "http://www.w3.org/Graphics/SVG/1.1/DTD/svg11.dtd"><svg t="1599556723902" class="icon" viewBox="0 0 1024 1024" version="1.1" xmlns="http://www.w3.org/2000/svg" p-id="116647" xmlns:xlink="http://www.w3.org/1999/xlink" width="48" height="48"><defs><style type="text/css"></style></defs><path d="M64 128h896a64 64 0 0 1 64 64v640a64 64 0 0 1-64 64H64a64 64 0 0 1-64-64V192a64 64 0 0 1 64-64z m0 64v640h896V192H64z" p-id="116648" fill="#515151"></path><path d="M14.208 282.624l444.544 296.32a96 96 0 0 0 106.496 0l444.544-296.32-35.456-53.248-444.608 296.32a32 32 0 0 1-35.456 0L49.664 229.376l-35.456 53.248z" p-id="116649" fill="#515151"></path></svg>