<?xml version="1.0" standalone="no"?><!DOCTYPE svg PUBLIC "-//W3C//DTD SVG 1.1//EN" "http://www.w3.org/Graphics/SVG/1.1/DTD/svg11.dtd"><svg t="1600168170431" class="icon" viewBox="0 0 1024 1024" version="1.1" xmlns="http://www.w3.org/2000/svg" p-id="59520" xmlns:xlink="http://www.w3.org/1999/xlink" width="48" height="48"><defs><style type="text/css"></style></defs><path d="M512.605 955.768c-244.741 0-443.91-199.112-443.91-443.891 0-244.739 199.169-443.831 443.91-443.831 24.681 0 49.95 2.131 75.1 6.453 13.534 2.287 25.386 10.522 32.271 22.414 6.881 11.908 8.055 26.283 3.36 39.172-1.838 4.891-4.186 9.368-8.487 17.503-68.607 129.724-72.244 229.191-11.187 304.037 42.869 52.628 98.295 79.305 164.711 79.305 38.179 0 78.036-8.468 118.245-25.151 5.007-2.054 10.21-4.185 17.836-4.792 13.574-1.134 27.068 3.97 36.689 13.788a46.211 46.211 0 0 1 12.909 37.061c-23.351 226.845-213.176 397.932-441.447 397.932z m-3.677-795.199c-192.051 1.995-347.726 158.806-347.726 351.308 0 193.754 157.63 351.365 351.403 351.365 155.363 0 288.235-100.055 334.192-242.275-26.363 5.633-52.57 8.527-78.424 8.527-94.149 0-175.934-39.193-236.406-113.354-54.136-66.338-98.728-180.2-23.039-355.571z" fill="#dbdbdb" p-id="59521"></path></svg>