<?xml version="1.0" standalone="no"?><!DOCTYPE svg PUBLIC "-//W3C//DTD SVG 1.1//EN" "http://www.w3.org/Graphics/SVG/1.1/DTD/svg11.dtd"><svg t="1600168135048" class="icon" viewBox="0 0 1024 1024" version="1.1" xmlns="http://www.w3.org/2000/svg" p-id="59331" xmlns:xlink="http://www.w3.org/1999/xlink" width="48" height="48"><defs><style type="text/css"></style></defs><path d="M230.931556 331.727217l0 1.199315c0.711198-0.294712 1.429559-0.581238 2.145873-0.870834L230.931556 331.727217z" p-id="59332" fill="#dbdbdb"></path><path d="M865.101014 261.757632 676.452469 73.109088c-6.692423-6.692423-15.818267-9.55154-24.596188-8.593725l-54.254671 0L216.016869 64.515363c-36.334533 0-65.895803 29.560246-65.895803 65.895803l0 762.300696c0 36.334533 29.560246 65.895803 65.895803 65.895803l591.636758 0c36.334533 0 65.895803-29.560246 65.895803-65.895803L873.549429 345.480452l0-57.966203C874.90224 278.386358 872.088148 268.744767 865.101014 261.757632zM800.86092 285.273209l-135.332245 0c-4.112668 0-7.720845-3.607154-7.720845-7.719822l0-135.332245L800.86092 285.273209zM813.342186 892.712885c0 3.14155-2.547009 5.689582-5.688559 5.689582L216.016869 898.402467c-3.14155 0-5.688559-2.547009-5.688559-5.689582L210.328309 130.411165c0-3.14155 2.547009-5.689582 5.688559-5.689582l381.584742 0 0 152.830781c0 37.359886 30.567179 67.927065 67.927065 67.927065l147.81351 0L813.342186 892.712885z" p-id="59333" fill="#dbdbdb"></path><path d="M316.03277 521.504468l0 7.023974c0 14.625092 11.966543 26.591635 26.591635 26.591635l338.160743 0c14.625092 0 26.591635-11.966543 26.591635-26.591635l0-7.023974c0-14.625092-11.966543-26.591635-26.591635-26.591635L342.623381 494.912833C327.998289 494.913856 316.03277 506.879376 316.03277 521.504468z" p-id="59334" fill="#dbdbdb"></path><path d="M680.784124 663.492296 342.623381 663.492296c-14.625092 0-26.591635 11.966543-26.591635 26.591635l0 7.023974c0 14.625092 11.966543 26.591635 26.591635 26.591635l338.160743 0c14.625092 0 26.591635-11.965519 26.591635-26.591635l0-7.023974C707.375759 675.457816 695.409217 663.492296 680.784124 663.492296z" p-id="59335" fill="#dbdbdb"></path></svg>