<?xml version="1.0" standalone="no"?><!DOCTYPE svg PUBLIC "-//W3C//DTD SVG 1.1//EN" "http://www.w3.org/Graphics/SVG/1.1/DTD/svg11.dtd"><svg class="icon" width="200px" height="200.00px" viewBox="0 0 1024 1024" version="1.1" xmlns="http://www.w3.org/2000/svg"><path fill="#ffce66" d="M277.29 362.61v-42.66c0-129.583 105.047-234.63 234.63-234.63s234.63 105.047 234.63 234.63v42.66h53.325c53.011 0 95.985 42.974 95.985 95.985v383.94c0 53.011-42.974 95.985-95.985 95.985h-575.91c-53.011 0-95.985-42.974-95.985-95.985v-383.94c0-53.011 42.974-95.985 95.985-95.985h53.325z m63.99 0h341.28v-42.66c0-94.242-76.398-170.64-170.64-170.64-94.242 0-170.64 76.398-170.64 170.64v42.66zM223.965 426.6c-17.67 0-31.995 14.325-31.995 31.995v383.94c0 17.67 14.325 31.995 31.995 31.995h575.91c17.67 0 31.995-14.325 31.995-31.995v-383.94c0-17.67-14.325-31.995-31.995-31.995h-575.91z m255.96 149.31h63.99v170.64h-63.99V575.91z" /></svg>