<?xml version="1.0" standalone="no"?><!DOCTYPE svg PUBLIC "-//W3C//DTD SVG 1.1//EN" "http://www.w3.org/Graphics/SVG/1.1/DTD/svg11.dtd"><svg t="1599015938582" class="icon" viewBox="0 0 1024 1024" version="1.1" xmlns="http://www.w3.org/2000/svg" p-id="9764" xmlns:xlink="http://www.w3.org/1999/xlink" width="48" height="48"><defs><style type="text/css"></style></defs><path d="M868.159 240.679c2.204 4.958 3.994 10.746 5.371 17.361 1.377 6.616 2.064 13.51 2.064 20.669 0 7.164-1.373 14.337-4.127 21.522-2.754 7.18-7.165 14.07-13.234 20.669-6.615 6.614-12.544 12.402-17.785 17.361-5.238 4.959-9.795 9.368-13.654 13.234-4.415 4.41-8.55 8.276-12.415 11.591L659.707 208.415c6.615-6.07 14.474-13.375 23.58-21.913 9.103-8.542 16.683-15.299 22.734-20.273 7.729-6.071 15.722-10.343 23.98-12.81 8.258-2.473 16.391-3.575 24.4-3.308 8.012 0.263 15.73 1.506 23.161 3.73 7.426 2.221 13.905 4.702 19.426 7.435 11.573 6.07 24.392 16.683 38.459 31.84 14.062 15.156 24.946 31.012 32.66 47.562h0.052zM223.85 644.296c3.316-3.315 11.037-11.174 23.157-23.581 12.124-12.402 27.288-27.7 45.498-45.894l305.19-305.186 154.671 155.49-177.832 177.833-66.167 66.986c-22.054 21.51-41.903 41.217-59.548 59.129-17.648 17.907-32.256 32.66-43.83 44.249-11.574 11.595-18.464 18.21-20.672 19.85-5.52 4.959-11.865 10.201-19.03 15.722-7.16 5.524-14.608 9.934-22.337 13.233-7.73 3.866-19.03 8.55-33.903 14.054-14.874 5.505-30.455 10.876-46.742 16.118-16.283 5.242-31.722 9.795-46.314 13.659-14.595 3.865-25.478 6.34-32.664 7.434-14.89 1.66-24.817-0.545-29.772-6.615-4.958-6.07-6.335-16.266-4.13-30.596 1.11-7.729 3.731-18.896 7.862-33.507a3205.747 3205.747 0 0 1 13.23-45.498c4.698-15.718 9.248-30.196 13.659-43.43 4.41-13.234 7.992-22.329 10.745-27.288 3.316-7.726 7.04-14.76 11.167-21.092 4.13-6.332 10.059-13.367 17.785-21.093l-0.023 0.023z m0 0M474.365 825.194a44.352 44.352 0 1 0 90.771 0 44.352 44.352 0 1 0-90.771 0zM605.258 825.194a44.352 44.352 0 1 0 90.771 0 44.352 44.352 0 1 0-90.771 0zM736.152 825.194a44.352 44.352 0 1 0 90.772 0 44.352 44.352 0 1 0-90.772 0z" p-id="9765" fill="#515151"></path></svg>