<?xml version="1.0" standalone="no"?><!DOCTYPE svg PUBLIC "-//W3C//DTD SVG 1.1//EN" "http://www.w3.org/Graphics/SVG/1.1/DTD/svg11.dtd"><svg t="1599016625596" class="icon" viewBox="0 0 1024 1024" version="1.1" xmlns="http://www.w3.org/2000/svg" p-id="18487" xmlns:xlink="http://www.w3.org/1999/xlink" width="48" height="48"><defs><style type="text/css"></style></defs><path d="M898.60608 230.912c-36.58752 16.27136-70.07744 38.92224-72.12032-33.67424-1.3312-47.05792-54.05184-82.70848-47.1296-136.68864h17.03424c52.1728 24.23808 86.64576 63.64672 102.21568 119.25504V230.912z" p-id="18488" fill="#aebbdb"></path><path d="M882.22208 571.4176c-54.50752-86.67136-141.91104-63.06304-221.78304-67.7888-39.51104-2.33984-89.53344 34.43712-116.736-13.7728-23.74656-42.10176 38.84544-55.43424 46.5664-90.28608 1.1264-5.07904 1.16736-10.38848 1.5872-15.62112-0.4608 0.0768-0.87552 0.19968-1.33632 0.27648l-0.02048 0.02048v-0.01536h-0.01536c-0.5376-0.39936-1.02912-0.84992-1.52576-1.30048-27.68896 2.8672-63.1808 39.05024-77.59872-13.97248-7.36768-27.10016 15.15008-48.8704 41.17504-53.15584 68.61312-11.28448 40.11008 34.96448 38.11328 65.18784 0.45568 0.5376 0.91136 1.08032 1.30048 1.70496-0.04096 0.41472-0.06144 0.82944-0.09728 1.24416 54.90176-9.55392 78.18752-54.29248 69.08416-96.93184-12.02688-56.42752-63.81568-31.49824-99.08736-20.68992-42.35776 12.98432-70.00576-4.46464-99.98848-39.42912 28.01664 61.7216-36.23424 70.38976-52.5056 102.41536 87.90528 71.552 85.49376 128.90112 0.93184 198.07744-49.29536 40.29952-100.41856 79.77984-138.98752 131.85536 15.16032 12.66176 24.81152 7.24992 35.6096 3.2256 180.62336-67.44576 179.35872-67.31776 183.64928 128.96256 1.49504 68.76672-30.976 140.81024 16.22016 206.09024h34.0736c16.86528-17.31072 23.47008-39.52128 20.97664-61.97248-7.48544-67.57376 26.8544-99.072 85.89312-124.8256 69.10976-30.13632 130.31424-77.04064 189.24032-124.71296 35.40992-28.6208 66.83136-61.98784 45.2608-114.5856z m-73.25184 37.45792c-60.57472 64.19456-121.51296 133.82656-205.29664 161.96608-100.35712 33.7152-41.32864-62.976-66.7136-90.38336 11.01312-42.43968-18.66752-98.60608 38.32832-114.47296 75.84256-21.12 155.12064-39.36768 231.7312 0.96256 20.69504 10.90048 15.2064 27.8784 1.95072 41.92768z" p-id="18489" fill="#aebbdb"></path></svg>