<?xml version="1.0" standalone="no"?><!DOCTYPE svg PUBLIC "-//W3C//DTD SVG 1.1//EN" "http://www.w3.org/Graphics/SVG/1.1/DTD/svg11.dtd"><svg t="1601984276177" class="icon" viewBox="0 0 1024 1024" version="1.1" xmlns="http://www.w3.org/2000/svg" p-id="6324" xmlns:xlink="http://www.w3.org/1999/xlink" width="48" height="48"><defs><style type="text/css"></style></defs><path d="M512.361327 1022.554693C231.971771 1022.554693 3.613267 794.196189 3.613267 513.806634 3.613267 233.417078 231.971771 5.058574 512.361327 5.058574c280.389555 0 508.748059 228.358504 508.748059 508.74806 0 136.58151-51.308398 263.768525-143.808045 359.881439-93.222301 96.112915-219.686662 148.86662-354.100212 148.86662h-10.839802z m0-906.207481c-218.964008 0-397.459421 178.495413-397.459422 397.459422s178.495413 397.459421 397.459422 397.459421 397.459421-178.495413 397.459421-397.459421-178.495413-397.459421-397.459421-397.459422zM473.338038 599.802399c-26.015526 0-46.972477-20.956951-46.972477-46.972477V294.119972c0-26.015526 20.956951-46.972477 46.972477-46.972477 12.285109 0 24.570219 5.058574 33.242061 13.730416 8.671842 8.671842 13.730416 20.956951 13.730416 33.242061V505.857445h211.737474c26.015526 0 46.972477 20.956951 46.972477 46.972477 0 12.285109-5.058574 24.570219-13.730417 33.242061-8.671842 8.671842-20.956951 13.730416-33.24206 13.730416H473.338038z" fill="#343333" p-id="6325"></path></svg>