<?xml version="1.0" standalone="no"?><!DOCTYPE svg PUBLIC "-//W3C//DTD SVG 1.1//EN" "http://www.w3.org/Graphics/SVG/1.1/DTD/svg11.dtd"><svg t="1599558936305" class="icon" viewBox="0 0 1024 1024" version="1.1" xmlns="http://www.w3.org/2000/svg" p-id="116834" xmlns:xlink="http://www.w3.org/1999/xlink" width="48" height="48"><defs><style type="text/css"></style></defs><path d="M512 0C230.4 0 0 230.4 0 512s230.4 512 512 512 512-230.4 512-512-230.4-512-512-512z m0 947.2c-236.8 0-435.2-192-435.2-435.2s192-435.2 435.2-435.2 435.2 192 435.2 435.2-198.4 435.2-435.2 435.2z" p-id="116835" fill="#515151"></path><path d="M531.2 512V249.6c0-19.2-19.2-38.4-38.4-38.4s-38.4 19.2-38.4 38.4v281.6c0 12.8 6.4 19.2 12.8 32l140.8 121.6c6.4 6.4 19.2 12.8 25.6 12.8 12.8 0 19.2-6.4 32-12.8 12.8-19.2 12.8-38.4-6.4-57.6L531.2 512z" p-id="116836" fill="#515151"></path></svg>