<?xml version="1.0" standalone="no"?><!DOCTYPE svg PUBLIC "-//W3C//DTD SVG 1.1//EN" "http://www.w3.org/Graphics/SVG/1.1/DTD/svg11.dtd"><svg t="1599015916171" class="icon" viewBox="0 0 1092 1024" version="1.1" xmlns="http://www.w3.org/2000/svg" p-id="9532" xmlns:xlink="http://www.w3.org/1999/xlink" width="51.1875" height="48"><defs><style type="text/css"></style></defs><path d="M303.377067 920.1664l197.8368-138.922667h469.674666c33.518933 0 60.757333-27.170133 60.757334-60.6208v-546.133333a60.689067 60.689067 0 0 0-60.757334-60.757333H121.378133a60.689067 60.689067 0 0 0-60.757333 60.757333v546.133333c0 33.450667 27.2384 60.6208 60.757333 60.6208h181.998934v138.922667z m217.019733-78.2336l-182.135467 127.863467a60.689067 60.689067 0 0 1-95.573333-49.629867v-78.2336H121.4464A121.378133 121.378133 0 0 1 0 720.622933v-546.133333C0 107.451733 54.340267 53.111467 121.378133 53.111467h849.5104c67.037867 0 121.378133 54.340267 121.378134 121.378133v546.133333c0 66.9696-54.340267 121.309867-121.378134 121.309867h-450.56zM303.377067 538.624a60.689067 60.689067 0 1 1 0-121.378133 60.689067 60.689067 0 0 1 0 121.378133z m242.756266 0A60.689067 60.689067 0 1 1 546.133333 417.109333 60.689067 60.689067 0 0 1 546.133333 538.624z m242.756267 0a60.689067 60.689067 0 1 1 0-121.378133 60.689067 60.689067 0 0 1 0 121.378133z" p-id="9533" fill="#8a8a8a"></path></svg>