<?xml version="1.0" standalone="no"?><!DOCTYPE svg PUBLIC "-//W3C//DTD SVG 1.1//EN" "http://www.w3.org/Graphics/SVG/1.1/DTD/svg11.dtd"><svg t="1599556663305" class="icon" viewBox="0 0 1083 1024" version="1.1" xmlns="http://www.w3.org/2000/svg" p-id="116134" xmlns:xlink="http://www.w3.org/1999/xlink" width="50.765625" height="48"><defs><style type="text/css"></style></defs><path d="M187.392 47.104c-88.576 0-160.256 79.36-160.256 169.984v495.616c0 90.624 70.144 151.04 158.208 151.04h63.488v102.912c0 49.152 29.696 63.488 67.584 30.72l154.112-133.632h411.648c88.576 0 158.208-60.416 158.208-151.04V217.088c0-90.624-80.384-169.984-168.96-169.984H187.392z m689.664 750.592h-427.008l-17.408 15.36L317.44 913.92v-116.224H193.024c-46.592 0-93.184-26.624-93.184-86.016V219.136c0-55.808 44.544-104.96 94.72-104.96h671.744c53.248 0 103.424 51.2 103.424 104.96V711.68c0.512 59.392-46.08 86.016-92.672 86.016z m-664.064-440.32c0-16.896 13.824-30.208 30.72-30.208h382.464c16.896 0 30.72 13.824 30.72 30.208 0 16.896-13.824 30.208-30.208 30.208H243.712c-16.896 0-30.208-13.312-30.72-30.208z m0 233.472c0-16.896 13.824-30.208 30.72-30.208H788.48c16.896 0 30.72 13.824 30.72 30.208 0 16.896-13.824 30.208-30.72 30.208H244.224c-16.896 0-30.72-13.312-31.232-30.208z" p-id="116135" fill="#515151"></path></svg>