<?xml version="1.0" standalone="no"?><!DOCTYPE svg PUBLIC "-//W3C//DTD SVG 1.1//EN" "http://www.w3.org/Graphics/SVG/1.1/DTD/svg11.dtd"><svg t="1600163719417" class="icon" viewBox="0 0 1024 1024" version="1.1" xmlns="http://www.w3.org/2000/svg" p-id="16610" xmlns:xlink="http://www.w3.org/1999/xlink" width="48" height="48"><defs><style type="text/css"></style></defs><path d="M1004.8 1004.8c-25.6 25.6-64 25.6-89.6 0L716.8 806.4C544 934.4 307.2 928 147.2 780.8-32 614.4-44.8 320 128 140.8s460.8-185.6 640-6.4c160 160 172.8 409.6 38.4 582.4l198.4 198.4c25.6 25.6 25.6 64 0 89.6zM704 262.4c-128-179.2-390.4-179.2-518.4 0-83.2 108.8-83.2 268.8 0 377.6 128 179.2 390.4 179.2 518.4 0 83.2-115.2 83.2-268.8 0-377.6z" p-id="16611"></path></svg>