<?xml version="1.0" standalone="no"?><!DOCTYPE svg PUBLIC "-//W3C//DTD SVG 1.1//EN" "http://www.w3.org/Graphics/SVG/1.1/DTD/svg11.dtd"><svg t="1599554469536" class="icon" viewBox="0 0 1024 1024" version="1.1" xmlns="http://www.w3.org/2000/svg" p-id="76373" xmlns:xlink="http://www.w3.org/1999/xlink" width="48" height="48"><defs><style type="text/css"></style></defs><path d="M509.70263 700.550745c-108.225977 0-191.008099-82.782122-191.008099-191.059294 0-108.225977 82.782122-191.008099 191.008099-191.008099 108.277172 0 191.059294 82.782122 191.059294 191.008099 0 108.277172-82.782122 191.059294-191.059294 191.059294z m0-318.432157A127.731227 127.731227 0 0 0 382.380963 509.491451a127.731227 127.731227 0 0 0 127.321667 127.372863 127.731227 127.731227 0 0 0 127.372863-127.372863 127.731227 127.731227 0 0 0-127.372863-127.321668z" p-id="76374"></path><path d="M637.075493 1018.880512H382.380963c-19.09569 0-31.843216-12.69633-31.843216-31.792021v-121.024697c-25.49505-12.69633-50.938906-25.443856-70.034597-38.191381l-101.877812 63.686431a33.583842 33.583842 0 0 1-44.590741-12.747525L6.661734 655.960004c-12.69633-19.09569-6.348165-38.191381 12.798721-44.539546l101.877812-63.686431V471.30007L19.40926 407.613639c-19.146885-6.348165-25.49505-25.443856-12.79872-44.539546l127.372862-222.90251c6.348165-12.69633 25.49505-19.09569 44.539546-6.348165l101.877813 63.686431c19.146885-12.747525 44.590741-31.843216 70.085791-38.242576V31.945605c0-19.09569 12.747525-31.843216 31.843216-31.843215h254.69453c19.09569 0 31.843216 12.747525 31.843216 31.843215v120.973503c25.443856 12.747525 50.938906 25.49505 70.034596 38.191381l101.877813-63.635237a33.583842 33.583842 0 0 1 44.539546 12.696331l127.372862 222.90251c12.747525 19.09569 6.39936 38.191381-12.747525 44.539546l-101.877812 63.686431v76.433957l101.877812 63.635236c12.79872 6.39936 19.146885 25.49505 12.79872 44.539546l-127.372862 222.90251c-6.39936 12.747525-25.49505 19.09569-44.590741 12.747525l-101.877813-63.686431c-19.09569 12.747525-44.539546 31.843216-70.034596 38.191381v121.024697c0 19.09569-12.747525 31.792021-31.843216 31.792021zM414.224178 955.245275h191.008099v-108.277172c0-12.69633 6.348165-25.443856 19.095691-31.843215a405.975402 405.975402 0 0 0 89.130287-50.938907 40.59754 40.59754 0 0 1 38.242576 0l95.478452 57.338267 95.529647-165.564244-95.529647-57.338266c-12.69633-12.69633-19.09569-25.443856-12.696331-38.191381 0-19.09569 6.348165-31.843216 6.348166-50.938906s0-31.843216-6.348166-50.938906a48.635136 48.635136 0 0 1 12.696331-31.843216l95.529647-57.338266-95.529647-165.513049-95.478452 57.338266a40.59754 40.59754 0 0 1-38.242576 0 405.975402 405.975402 0 0 0-89.079092-50.990101c-12.79872-12.69633-19.146885-25.443856-19.146886-38.19138V63.788821H414.224178v108.225978a35.017298 35.017298 0 0 1-19.146885 31.843215 405.975402 405.975402 0 0 0-89.079092 50.938906 40.59754 40.59754 0 0 1-38.242576 0L172.225978 203.858014 76.747526 369.422258l95.478452 57.338266c12.747525 6.348165 19.09569 19.044496 12.747525 31.792021 0 19.09569-6.348165 31.843216-6.348165 50.938906s0 31.843216 6.348165 50.938906c6.348165 12.747525 0 25.49505-12.747525 31.843216l-95.478452 57.338266 95.478452 165.513049 95.529647-57.287072a40.59754 40.59754 0 0 1 38.191381 0 405.975402 405.975402 0 0 0 89.130287 50.938906 35.017298 35.017298 0 0 1 19.146885 31.843216v114.625337z" p-id="76375"></path></svg>