<?xml version="1.0" standalone="no"?><!DOCTYPE svg PUBLIC "-//W3C//DTD SVG 1.1//EN" "http://www.w3.org/Graphics/SVG/1.1/DTD/svg11.dtd"><svg t="1600168061726" class="icon" viewBox="0 0 1024 1024" version="1.1" xmlns="http://www.w3.org/2000/svg" p-id="59099" xmlns:xlink="http://www.w3.org/1999/xlink" width="48" height="48"><defs><style type="text/css"></style></defs><path d="M909 622h-25.864a384.577 384.577 0 0 1-30.953 74.619L870.5 714.94a50 50 0 0 1 0 70.71l-84.85 84.85a50 50 0 0 1-70.71 0l-18.332-18.332A384.707 384.707 0 0 1 622 883.113V909a50 50 0 0 1-50 50H452a50 50 0 0 1-50-50v-25.887a384.707 384.707 0 0 1-74.608-30.942L309.06 870.5a50 50 0 0 1-70.71 0l-84.85-84.85a50 50 0 0 1 0-70.71l18.32-18.321A384.577 384.577 0 0 1 140.864 622H115a50 50 0 0 1-50-50V452a50 50 0 0 1 50-50h25.864a384.577 384.577 0 0 1 30.953-74.619L153.5 309.06a50 50 0 0 1 0-70.71l84.85-84.85a50 50 0 0 1 70.71 0l18.332 18.332A384.707 384.707 0 0 1 402 140.887V115a50 50 0 0 1 50-50h120a50 50 0 0 1 50 50v25.887a384.707 384.707 0 0 1 74.608 30.942L714.94 153.5a50 50 0 0 1 70.71 0l84.85 84.85a50 50 0 0 1 0 70.71l-18.32 18.321A384.577 384.577 0 0 1 883.136 402H909a50 50 0 0 1 50 50v120a50 50 0 0 1-50 50z m-10-140a20 20 0 0 0-20-20h-43.818a325.324 325.324 0 0 0-59.32-143.151l31-31a20 20 0 0 0 0-28.284l-42.427-42.427a20 20 0 0 0-28.284 0l-31 31A325.244 325.244 0 0 0 562 188.8V145a20 20 0 0 0-20-20h-60a20 20 0 0 0-20 20v43.8a325.244 325.244 0 0 0-143.156 59.333l-31-31a20 20 0 0 0-28.284 0l-42.427 42.427a20 20 0 0 0 0 28.284l31 31A325.324 325.324 0 0 0 188.818 462H145a20 20 0 0 0-20 20v60a20 20 0 0 0 20 20h43.818a325.329 325.329 0 0 0 59.32 143.151l-31 31a20 20 0 0 0 0 28.284l42.427 42.427a20 20 0 0 0 28.284 0l31-31A325.244 325.244 0 0 0 462 835.2V879a20 20 0 0 0 20 20h60a20 20 0 0 0 20-20v-43.8a325.244 325.244 0 0 0 143.156-59.333l31 31a20 20 0 0 0 28.284 0l42.427-42.427a20 20 0 0 0 0-28.284l-31-31A325.329 325.329 0 0 0 835.182 562H879a20 20 0 0 0 20-20v-60zM512 682a170 170 0 1 1 170-170 170 170 0 0 1-170 170z m0-280a110 110 0 1 0 110 110 110 110 0 0 0-110-110z" p-id="59100" fill="#dbdbdb"></path></svg>