<?xml version="1.0" standalone="no"?><!DOCTYPE svg PUBLIC "-//W3C//DTD SVG 1.1//EN" "http://www.w3.org/Graphics/SVG/1.1/DTD/svg11.dtd"><svg t="1599220750285" class="icon" viewBox="0 0 1024 1024" version="1.1" xmlns="http://www.w3.org/2000/svg" p-id="8345" xmlns:xlink="http://www.w3.org/1999/xlink" width="48" height="48"><defs><style type="text/css"></style></defs><path d="M235.602542 0h107.563025v377.331092h-107.563025zM457.612626 0h107.563025v377.331092h-107.563025zM680.052962 0h107.563025v377.331092h-107.563025z" fill="#FF858B" p-id="8346"></path><path d="M511.824391 606.22521m-417.77479 0a417.77479 417.77479 0 1 0 835.54958 0 417.77479 417.77479 0 1 0-835.54958 0Z" fill="#E8E9EA" p-id="8347"></path><path d="M511.824391 606.22521m-323.119328 0a323.119328 323.119328 0 1 0 646.238655 0 323.119328 323.119328 0 1 0-646.238655 0Z" fill="#A2ADB7" p-id="8348"></path><path d="M528.604223 676.356303a503.394958 503.394958 0 0 0 73.142857-56.793278 129.07563 129.07563 0 0 0 35.710924-86.05042 104.121008 104.121008 0 0 0-33.559664-79.596639 124.342857 124.342857 0 0 0-86.05042-30.547899 120.040336 120.040336 0 0 0-94.22521 39.583194A141.552941 141.552941 0 0 0 387.481533 559.327731v6.884034h66.258824V559.327731a101.109244 101.109244 0 0 1 17.210084-59.805042 50.769748 50.769748 0 0 1 43.02521-19.361344 61.52605 61.52605 0 0 1 43.02521 12.907563 49.909244 49.909244 0 0 1 13.768067 38.722689 77.87563 77.87563 0 0 1-21.942857 52.060504 379.052101 379.052101 0 0 1-48.618487 38.722689A450.47395 450.47395 0 0 0 421.901702 688.403361a139.401681 139.401681 0 0 0-36.141177 95.085715v6.884033h252.127731V731.428571H468.799181a204.369748 204.369748 0 0 1 59.805042-55.072268z" fill="#FFFFFF" p-id="8349"></path></svg>