<?xml version="1.0" standalone="no"?><!DOCTYPE svg PUBLIC "-//W3C//DTD SVG 1.1//EN" "http://www.w3.org/Graphics/SVG/1.1/DTD/svg11.dtd"><svg t="1598972989369" class="icon" viewBox="0 0 1024 1024" version="1.1" xmlns="http://www.w3.org/2000/svg" p-id="15256" xmlns:xlink="http://www.w3.org/1999/xlink" width="48" height="48"><defs><style type="text/css"></style></defs><path d="M336.907 87.514c-14.39000001-13.839-37.274-13.393-51.113 0.999-13.84 14.39-13.393 37.274 0.999 51.113L660.57 510.01600001 288.375 885.583c-14.068 14.188-13.97 37.092 0.219 51.162 14.187 14.06700001 37.092 13.969 51.161-0.22L735.32 537.377c0.621-0.612 0.767-1.41 1.34-2.02 0.136-0.136 0.32-0.174 0.464-0.32l0.007-0.008c14.054-14.174 13.954-37.055-0.22-51.11l-399.187-395.594c-0.266-0.276-0.54-0.546-0.817-0.81z" p-id="15257"></path></svg>