<?xml version="1.0" standalone="no"?><!DOCTYPE svg PUBLIC "-//W3C//DTD SVG 1.1//EN" "http://www.w3.org/Graphics/SVG/1.1/DTD/svg11.dtd"><svg class="icon" width="200px" height="200.00px" viewBox="0 0 1024 1024" version="1.1" xmlns="http://www.w3.org/2000/svg"><path fill="#ffce66" d="M634.342 589.022c105.11 41.118 185.376 133.808 207.609 249.08 2.965 15.374-7.095 30.241-22.469 33.206-15.374 2.965-30.24-7.094-33.205-22.468-25.155-130.425-139.813-226.122-274.22-226.122-134.407 0-249.067 95.7-274.22 226.125-2.965 15.374-17.831 25.434-33.205 22.47-15.374-2.966-25.434-17.832-22.469-33.206 22.23-115.275 102.498-207.967 207.61-249.085-76.52-42.89-128.237-124.79-128.237-218.77 0-138.402 112.16-250.602 250.522-250.602 138.36 0 250.52 112.2 250.52 250.602 0 93.98-51.716 175.88-128.236 218.77z m71.537-218.77c0-107.092-86.78-193.902-193.821-193.902-107.043 0-193.822 86.81-193.822 193.902 0 107.09 86.779 193.9 193.822 193.9 107.042 0 193.82-86.81 193.82-193.9z" /></svg>