<?xml version="1.0" standalone="no"?><!DOCTYPE svg PUBLIC "-//W3C//DTD SVG 1.1//EN" "http://www.w3.org/Graphics/SVG/1.1/DTD/svg11.dtd"><svg t="1599656686612" class="icon" viewBox="0 0 1024 1024" version="1.1" xmlns="http://www.w3.org/2000/svg" p-id="14133" xmlns:xlink="http://www.w3.org/1999/xlink" width="48" height="48"><defs><style type="text/css"></style></defs><path d="M169.115676 718.847022c-112.101147 0-150.903895 43.11496-150.903895 107.788935 0 64.672952 38.802748 107.794052 150.903895 107.794052 112.106264 0 150.909012-43.1211 150.909012-107.794052C320.025711 761.961982 281.22194 718.847022 169.115676 718.847022L169.115676 718.847022zM169.115676 718.847022" p-id="14134" fill="#1296db"></path><path d="M988.323453 158.336168l-86.230943 0c-12.93766 0-21.556968 8.624425-21.556968 21.557992l0 107.794052-43.115983 0L837.419558 136.7792c0-12.932544-8.624425-21.557992-21.562085-21.557992l-86.230943 0c-12.932544 0-21.556968 8.626471-21.556968 21.557992l0 107.788935-43.115983 0L664.953577 136.7792c0-12.932544-8.624425-21.557992-21.556968-21.557992l-86.230943 0c-12.93766 0-21.556968 8.626471-21.556968 21.557992l0 107.788935-43.1211 0 0-64.672952c0-12.933567-8.620331-21.557992-21.557992-21.557992l-86.22992 0c-12.932544 0-21.557992 8.624425-21.557992 21.557992l0 107.794052-43.113937 0 0-86.23606c0-64.672952-38.802748-107.788935-150.909012-107.788935-112.101147 0-150.903895 43.115983-150.903895 107.788935l0 517.395894 0 0c34.495652-30.18344 81.918731-43.115983 150.903895-43.115983 68.985164 0 116.41336 12.932544 150.909012 43.115983l0 0 0-43.115983 43.113937 0 0 107.788935c0 12.93766 8.626471 21.556968 21.557992 21.556968l86.22992 0c12.938684 0 21.557992-8.620331 21.557992-21.556968L492.487597 632.616078l43.1211 0 0 107.788935c0 12.932544 8.620331 21.556968 21.556968 21.556968l86.230943 0c12.932544 0 21.556968-8.624425 21.556968-21.556968L664.953577 632.616078l43.115983 0 0 107.788935c0 12.932544 8.625448 21.556968 21.556968 21.556968l86.230943 0c12.93766 0 21.562085-8.624425 21.562085-21.556968l0-64.672952 43.115983 0 0 107.788935c0 12.93766 8.620331 21.556968 21.556968 21.556968l86.230943 0c12.932544 0 21.556968-8.620331 21.556968-21.556968L1009.880421 179.89416C1009.881444 166.960593 1001.255996 158.336168 988.323453 158.336168L988.323453 158.336168zM363.139647 632.616078l-43.113937 0 0-301.81393 43.113937 0L363.139647 632.616078 363.139647 632.616078zM535.607674 589.500095l-43.1211 0L492.486574 287.688211l43.1211 0L535.607674 589.500095 535.607674 589.500095zM708.068538 589.500095l-43.115983 0L664.952554 287.688211l43.115983 0L708.068538 589.500095 708.068538 589.500095zM880.535541 632.616078l-43.115983 0 0-301.81393 43.115983 0L880.535541 632.616078 880.535541 632.616078zM880.535541 632.616078" p-id="14135" fill="#1296db"></path></svg>