<?xml version="1.0" standalone="no"?><!DOCTYPE svg PUBLIC "-//W3C//DTD SVG 1.1//EN" "http://www.w3.org/Graphics/SVG/1.1/DTD/svg11.dtd"><svg t="1599656273171" class="icon" viewBox="0 0 1024 1024" version="1.1" xmlns="http://www.w3.org/2000/svg" p-id="13342" xmlns:xlink="http://www.w3.org/1999/xlink" width="48" height="48"><defs><style type="text/css"></style></defs><path d="M202.03080528 467.1755439q66.46066984-7.70558483 172.41246314-30.8223404-27.93274568-4.81599012-81.87183949-14.44797142t-70.31346279-12.52157494q-54.90229314-7.70558483-91.02222222-41.89911853T95.11581374 282.24150474q0-52.01269841 37.564727-89.57742432t89.5774254-37.56472699l10.59517955 0 0-10.59517955q0-52.01269841 37.08312733-89.5774254T359.99529701 17.36202257q50.08630194 0 84.76143421 36.60152875t42.3807171 90.54062256q3.85279296 30.82233932 28.89594392 162.78048182 23.11675449-118.47336824 28.89594393-162.78048182 5.77918835-53.9390949 40.9359192-90.54062256T672.07148748 17.36202257q52.97589666 0 90.05902398 37.56472591T799.2136388 144.50417388l0 10.59517955 10.59517954 0q52.01269841 0 89.57742541 37.56472699t37.5647259 89.57742432q0 51.04950017-36.11992909 85.24303387T809.80881834 409.38365714q-64.53427444 9.6319813-152.18530228 26.96954636 33.71193404 6.74238659 94.8750141 17.33756614T830.03597919 467.1755439q54.90229314 6.74238659 91.5038208 41.89911853T958.14132875 594.31769522q0 52.97589666-37.564727 90.54062365t-90.54062256 37.5647259l-9.6319813 0 0 9.63198131q0 52.97589666-37.56472699 90.54062364t-90.54062257 37.564727q-50.08630194 0-84.27983563-36.60152876t-42.86231676-91.50382188q-0.96319824-14.44797142-18.30076439-104.02539683L546.85573156 728.2022342q0 132.92134075-73.20305642 204.1980007t-204.19800178 71.27666103q-12.52157603 0-21.67195768-9.15038165T238.63233404 972.85455661t9.15038164-21.67195767T269.45467336 942.03221621q215.75637848 0 215.75637847-215.75637848l0-101.13580211q-4.81599012 24.07995273-10.59517846 60.19988182t-7.70558482 44.78871325q-8.66878307 54.90229314-42.86231677 91.5038208T339.76813615 858.23398023q-52.97589666 0-90.54062256-37.56472698t-37.564727-90.54062256l0-9.63198131-9.63198131 0q-52.97589666 0-90.54062255-37.564727t-37.56472699-90.54062364q0-50.08630194 36.60152874-84.27983455T202.03080528 467.1755439z" p-id="13343" fill="#0cd9cd"></path></svg>