<?xml version="1.0" standalone="no"?><!DOCTYPE svg PUBLIC "-//W3C//DTD SVG 1.1//EN" "http://www.w3.org/Graphics/SVG/1.1/DTD/svg11.dtd"><svg t="1598362475434" class="icon" viewBox="0 0 1024 1024" version="1.1" xmlns="http://www.w3.org/2000/svg" p-id="3135" xmlns:xlink="http://www.w3.org/1999/xlink" width="200" height="200"><defs><style type="text/css"></style></defs><path d="M543.128637 5.052834h46.831147q128.970514 190.652064 258.495607 380.934409c-75.237935 115.352509-112.209893 256.40053-113.257432 421.850042l-116.276808-0.616199h-3.080996l-3.450716-0.6162h-73.943917l-57.429775-0.369719h-70.862919l-0.49296 0.369719-124.657119-0.739439q1.417258-252.826574-109.498616-427.703935Q307.062684 188.988326 437.327217 0h46.831147l-1.602118 317.8356a111.470454 111.470454 0 1 0 139.384282 108.882417 110.915874 110.915874 0 0 0-82.324227-107.896498zM221.780701 858.920207l-0.739439 162.245276 600.794319 2.834517V862.124443z" p-id="3136" fill="#1792d2"></path></svg>