<?xml version="1.0" standalone="no"?><!DOCTYPE svg PUBLIC "-//W3C//DTD SVG 1.1//EN" "http://www.w3.org/Graphics/SVG/1.1/DTD/svg11.dtd"><svg t="1598362525229" class="icon" viewBox="0 0 1024 1024" version="1.1" xmlns="http://www.w3.org/2000/svg" p-id="3413" xmlns:xlink="http://www.w3.org/1999/xlink" width="200" height="200"><defs><style type="text/css"></style></defs><path d="M74.4 805.6s6.4 5.6 7.2 6.4c172 155.2 422.4 175.2 615.2 60.8 16.8 56 68 96.8 128.8 96.8 74.4 0 135.2-60.8 135.2-135.2 0-58.4-36-108-88-126.4 127.2-195.2 115.2-457.6-42.4-636.8-7.2-8-24.8-15.2-40 0-36 34.4-110.4 104-158.4 170.4v6.4H347.2c-15.2-40-50.4-64.8-91.2-64.8-54.4 0-98.4 40-98.4 95.2 0 40 35.2 75.2 59.2 90.4v248.8c-48 60-112 120.8-143.2 152.8-1.6 0-5.6 14.4 0.8 35.2zM372.8 336h152.8c-44 48-76 76.8-76 76.8L372.8 336zM312 380l76 76.8s-28 32-76 76.8V380z" p-id="3414" fill="#efb336"></path></svg>