<?xml version="1.0" standalone="no"?><!DOCTYPE svg PUBLIC "-//W3C//DTD SVG 1.1//EN" "http://www.w3.org/Graphics/SVG/1.1/DTD/svg11.dtd"><svg t="1598319020349" class="icon" viewBox="0 0 1024 1024" version="1.1" xmlns="http://www.w3.org/2000/svg" p-id="2959" xmlns:xlink="http://www.w3.org/1999/xlink" width="200" height="200"><defs><style type="text/css"></style></defs><path d="M401.730867 326.686441a13.018405 13.018405 0 0 0 12.969647-12.969647v-31.692746a12.969647 12.969647 0 1 0-25.939294 0v31.692746a13.018405 13.018405 0 0 0 12.969647 12.969647zM612.585147 326.686441a13.018405 13.018405 0 0 0 12.969647-12.969647v-31.692746a12.969647 12.969647 0 1 0-25.939294 0v31.692746a13.018405 13.018405 0 0 0 12.969647 12.969647z" p-id="2960" fill="#dbdbdb"></path><path d="M912.471665 540.441826c-21.453551-44.272329-37.738747-61.605823-52.58558-65.96967V385.927498c0-0.926403 0.121895-1.828428 0.121895-2.754831v-0.75575c0-22.648124-12.482066-44.077297-34.496335-63.190461a26.621907 26.621907 0 0 0 8.33763-19.308196v-46.905265a26.816939 26.816939 0 0 0-26.816939-26.816939 26.30498 26.30498 0 0 0-6.972405 0.950782 316.927464 316.927464 0 0 0-144.665198-160.755361l47.734152-47.709773a10.946187 10.946187 0 1 0-15.480687-15.480688l-53.000024 53.000024a316.610537 316.610537 0 0 0-254.931577 0L326.716574 3.201016a10.946187 10.946187 0 1 0-15.480688 15.480688l47.661015 47.661015A316.927464 316.927464 0 0 0 214.231703 227.09808a26.30498 26.30498 0 0 0-6.972404-0.950782 26.816939 26.816939 0 0 0-26.81694 26.816939v47.02716a26.816939 26.816939 0 0 0 11.701938 22.087406c0 1.072678 0 2.169734-0.170654 3.242412-17.918591 17.552906-27.889617 36.885481-27.962754 57.168839v92.103997c-14.822454 4.388226-31.083271 21.7461-52.488064 65.823396-42.638933 88.032698-51.951725 171.628411-20.819696 186.719035 17.894212 8.654558 45.223111-7.167437 73.332139-38.860183 0.292548 80.13389 46.320168 155.440732 126.551575 231.990904 34.691368 33.13111 73.137107 53.999564 111.631604 74.161027 39.981619 21.014729 77.817882 29.547391 109.705661 29.547391s70.016591-8.776453 110.48579-30.034972c40.469199-21.941132 77.769124-41.761288 110.875855-73.673446 35.203328-33.106731 65.165162-56.754395 88.861585-98.881369 24.866616-45.491281 37.519336-90.202432 37.689989-133.109535 28.109028 31.692746 55.437927 47.514741 73.332139 38.860183 31.253924-15.066244 21.941132-98.686337-20.697801-186.694656z m-580.46484-314.24577a62.069025 62.069025 0 0 1 12.189517 1.194573v-0.170654c45.588797 9.434687 101.953127 15.017486 163.046991 15.017486s116.873097-5.534041 162.339999-14.871211v0.195032a60.947589 60.947589 0 0 1 73.746583 57.14446V287.314298c0 0.975161-0.121895 1.901565-0.146274 2.876727-3.632476 70.382276-107.925991 83.717609-236.110961 83.717608-127.599873 0-231.454565-13.213437-236.062203-82.718068 0-1.292089-0.195032-2.559799-0.195032-3.851887a60.947589 60.947589 0 0 1 0.877645-10.166058l1.852807-0.804509-1.852807 0.755751a61.142622 61.142622 0 0 1 60.313735-50.927806z m329.116982 412.932107l-132.207511 106.341354a23.964592 23.964592 0 0 1-33.789343 0l-132.23189-106.463249a23.964592 23.964592 0 0 1 0-33.789344c9.288413-9.288413 24.720342-6.119138 33.789343 0l115.337218 62.849154 115.337218-62.849154c13.189058-6.972404 24.500931-9.288413 33.789344 0a23.964592 23.964592 0 0 1 0 33.862481z m185.280671-263.854304c-0.658234 77.281543-150.126102 139.838149-334.431612 139.838149S178.199488 452.555403 177.541254 375.273859v-0.706992c0-13.920429 4.875807-27.353278 13.993567-40.054755 0 3.559339-0.195032 7.143057-0.195033 10.751154v1.121436c0.609476 72.966454 141.739714 132.036857 315.78165 132.036858s315.147795-59.070404 315.757271-132.036858v-1.121436c0-7.801291-0.292548-15.505067-0.828887-23.135705 15.626962 16.18768 24.379036 33.88686 24.379035 52.439306 0.048758 0.195032 0.024379 0.341307 0.024379 0.658234z" p-id="2961" fill="#dbdbdb"></path></svg>