<?xml version="1.0" standalone="no"?><!DOCTYPE svg PUBLIC "-//W3C//DTD SVG 1.1//EN" "http://www.w3.org/Graphics/SVG/1.1/DTD/svg11.dtd"><svg t="1601604106740" class="icon" viewBox="0 0 1024 1024" version="1.1" xmlns="http://www.w3.org/2000/svg" p-id="5378" data-spm-anchor-id="a313x.7781069.0.i6" xmlns:xlink="http://www.w3.org/1999/xlink" width="48" height="48"><defs><style type="text/css"></style></defs><path d="M473.130226 813.366745c0 0-5.637394-1.660826-13.862729-5.346775-8.612145 5.522784-14.431687 16.028045-14.431687 28.088732 0 17.800411 12.669554 32.221866 28.293393 32.221866s28.293393-14.422478 28.293393-32.221866c0-8.604982-2.963495-16.420995-7.789407-22.198581L473.130226 813.366745zM718.339973 220.128513 626.123712 220.128513l74.756611-94.466512c2.828418 1.033539 5.841032 1.598404 8.971325 1.598404 16.144702 0 29.234835-14.851243 29.234835-33.166377 0-18.318204-13.090133-33.17047-29.234835-33.17047s-29.233811 14.851243-29.233811 33.17047c0 7.328919 2.099824 14.099113 5.649674 19.589151l-84.242659 106.445334L431.657672 220.128513c8.087189-8.154727 13.179161-19.990287 13.179161-33.166377 0-24.600281-17.736966-44.541449-39.60809-44.541449-21.878287 0-39.616276 19.941168-39.616276 44.541449 0 13.176091 5.092995 25.01165 13.180184 33.166377l-75.423807 0c-52.086285 0-94.313016 42.431392-94.313016 94.767364l28.293393 252.079202c0 52.330856 42.22673 94.765317 94.310969 94.765317l358.385367 0c52.085262 0 94.310969-42.435485 94.310969-94.765317l28.29544-252.079202C812.654013 262.560928 770.426259 220.128513 718.339973 220.128513zM373.161397 498.743068c-14.582113 0-26.41051-11.881608-26.41051-26.533306 0-14.654768 11.827373-26.536376 26.41051-26.536376 14.583137 0 26.402323 11.881608 26.402323 26.536376C399.56372 486.86146 387.745557 498.743068 373.161397 498.743068zM635.342678 506.324744c-15.623839 0-28.291346-11.031241-28.291346-24.642237 0-13.606903 12.668531-24.638143 28.291346-24.638143 15.632025 0 28.294416 11.030218 28.294416 24.638143C663.637094 495.293503 650.974703 506.324744 635.342678 506.324744zM366.727871 673.110351c-3.101641 5.564739-4.888334 11.638061-4.888334 18.004049 0 18.633383 15.199167 34.788318 34.292014 42.856064 0.033769 0.152473 0.073678 0.304945 0.10847 0.457418-0.284479-2.669806-0.442068-5.415336-0.442068-8.245801-1.604544-10.44591-4.555759-31.79617 7.239891-53.071729L366.727871 673.110351zM442.036044 798.938128c-2.337231-1.434675-4.711302-2.988054-7.089465-4.662183C437.240831 795.951097 439.605691 797.507546 442.036044 798.938128zM626.128829 673.110351c3.492544 11.669784 7.739265 31.078833 5.834892 52.292993 16.455787-6.727215 31.673373-25.467021 31.673373-47.547923 0-1.600451-0.090051-3.182482-0.245593-4.745071L626.128829 673.110351zM570.87541 807.752888c-26.060539 5.629207-26.069749 7.513114-26.069749 7.513114l-7.259334-0.192382c-3.711532 5.221932-5.946432 11.880585-5.946432 19.147082 0 16.740266 11.828396 30.321586 26.41051 30.321586 14.58416 0 26.41051-13.580297 26.41051-30.321586C584.420915 822.838468 578.951343 812.940027 570.87541 807.752888zM416.438039 673.110351c-7.130398 12.329816-11.208273 26.548656-11.208273 41.703821 0 47.093575 39.263236 85.288478 87.705528 85.288478l41.498136 0c48.442292 0 87.712691-38.193881 87.712691-85.288478 0-15.155165-4.078899-29.374004-11.210319-41.703821L416.438039 673.110351z" p-id="5379" fill="#ed9a9a"></path></svg>