<?xml version="1.0" standalone="no"?><!DOCTYPE svg PUBLIC "-//W3C//DTD SVG 1.1//EN" "http://www.w3.org/Graphics/SVG/1.1/DTD/svg11.dtd"><svg t="1598362357313" class="icon" viewBox="0 0 1337 1024" version="1.1" xmlns="http://www.w3.org/2000/svg" p-id="2672" xmlns:xlink="http://www.w3.org/1999/xlink" width="261.1328125" height="200"><defs><style type="text/css"></style></defs><path d="M248.72462076 813.75336944l294.50665942 120.12161408a73.54384552 73.54384552 0 0 0 73.5769726-73.61010131V357.40055927A267.24243218 267.24243218 0 0 0 349.53269351 90.125h-94.24875696A68.57466641 68.57466641 0 0 0 186.7258345 158.68310288v563.53799487a99.8473645 99.8473645 0 0 0 61.99878626 91.5322717z m790.24849311 1e-8l-294.50665943 120.12161407a73.54384552 73.54384552 0 0 1-73.57697343-73.61010131V357.40055927A267.24243218 267.24243218 0 0 1 938.16504111 90.125h94.24875613a68.57466641 68.57466641 0 0 1 68.55810288 68.55810288v563.53799487a99.89705594 99.89705594 0 0 1-62.01535062 91.5322717z m0 0" p-id="2673" fill="#10cdc2"></path><path d="M1167.79078952 244.43456317l-24.71338146-24.3489754-9.70646293-8.09976187v510.16901604a131.33539353 131.33539353 0 0 1-81.8920654 121.8608259l-55.7541851 22.87478678c14.9075365 4.25692969 31.47146548 7.35438455 46.92561109 6.1949089l85.55269373-7.15561715c37.08663739-8.49729583 63.92020193-46.37900116 63.92020194-90.57156427v-470.41558567c-0.38097043-23.37170362-9.07703284-45.38516583-24.33241187-60.44177746zM236.35136566 843.88315707a131.0206789 131.0206789 0 0 1-81.90862893-121.86082672V206.96695535l-15.652913 13.11863242-24.71338229 24.3489754C98.82106241 259.49117481 90.125 281.50463621 90.125 304.67757324v470.24994699c0 44.24225454 26.85012891 82.09083279 63.92020193 90.58812781l85.56925809 7.13905362c16.56392899 1.35824222 34.56892035-2.30238611 50.20526899-7.13905362z m-1e-8 1e-8" p-id="2674" fill="#10cdc2"></path></svg>