<?xml version="1.0" standalone="no"?><!DOCTYPE svg PUBLIC "-//W3C//DTD SVG 1.1//EN" "http://www.w3.org/Graphics/SVG/1.1/DTD/svg11.dtd"><svg t="1598362637226" class="icon" viewBox="0 0 1024 1024" version="1.1" xmlns="http://www.w3.org/2000/svg" p-id="4013" xmlns:xlink="http://www.w3.org/1999/xlink" width="200" height="200"><defs><style type="text/css"></style></defs><path d="M1006.674506 917.791816c0 14.80035-2.516187 28.601644-7.581821 41.421791-5.032375 12.836777-12.232994 24.121884-21.555808 33.859158-9.322813 9.733437-20.211368 17.316537-32.651593 22.742906-12.423595 5.427648-26.035568 8.167695-40.801379 8.184325L128.209151 1023.999996c-14.767091 0-28.757706-2.723418-41.965451-8.184325-13.207745-5.462186-24.872774-13.027378-34.995088-22.742906-10.123593-9.719365-18.091733-20.986563-23.906978-33.859158-5.8242-12.836777-8.73566-26.638071-8.73566-41.421791L18.605973 335.259262c0-29.585349 10.295006-54.689659 30.886296-75.314208 20.600245-20.616874 45.670016-30.92851 75.211872-30.92851l775.865801 0c29.550811 0 54.620582 10.312914 75.229781 30.92851 20.572102 20.62455 30.877342 45.730138 30.877342 75.314208l0 158.761573L742.01432 494.020835c-29.55209 0-54.620582 10.123593-75.213151 30.360545-20.590011 20.263815-30.892692 45.178803-30.892692 74.728334 0.773916 20.247185 5.047725 38.148317 12.836777 53.708512 6.218194 13.23205 16.523433 25.293631 30.892692 36.201374 14.370538 10.906463 35.16778 16.36865 62.376375 16.36865l264.661465 0 0 212.470085L1006.675786 917.791816zM848.118884 175.333616 318.795953 175.333616c41.982081-21.788622 81.629621-42.809724 118.933666-63.054351 32.660547-17.13617 64.916867-34.263385 96.776634-51.365017 31.857209-17.118261 56.738938-30.35159 74.624719-39.716617 27.207315-14.792675 51.485261-21.606976 72.850468-20.426273 21.366486 1.162793 39.44031 4.867358 54.2074 11.086831 17.128495 8.573202 31.876397 19.850633 44.317901 33.848924L848.118884 175.333616zM689.563262 599.110993c0-14.80035 5.032375-27.240575 15.147013-37.353934 10.09673-10.115918 22.519046-15.180272 37.304045-15.180272 14.78372 0 27.206036 5.064355 37.304045 15.180272 10.09673 10.113359 15.145734 22.553584 15.145734 37.353934 0 14.801629-5.049004 27.449084-15.145734 37.960275-10.099288 10.509911-22.520325 15.749516-37.304045 15.749516-14.784999 0-27.208595-5.239605-37.304045-15.749516C694.594358 626.560077 689.563262 613.912622 689.563262 599.110993L689.563262 599.110993zM689.563262 599.110993" p-id="4014" fill="#e16531"></path></svg>